<svg width="16" height="10" viewBox="0 0 16 10" fill="none" xmlns="http://www.w3.org/2000/svg">
<path d="M5.76668 9.975C4.37849 9.975 3.1995 9.49149 2.22971 8.52447C1.25992 7.55745 0.775024 6.37984 0.775024 4.99166C0.775024 3.60347 1.25853 2.42448 2.22556 1.45469C3.19258 0.484896 4.37018 0 5.75837 0C7.14656 0 8.32555 0.48351 9.29534 1.45053C10.2651 2.41755 10.75 3.59516 10.75 4.98334C10.75 6.37153 10.2665 7.55052 9.29949 8.52031C8.33247 9.4901 7.15487 9.975 5.76668 9.975ZM11.8875 9.8875V9.275C12.9084 9.07083 13.7469 8.56771 14.4031 7.76562C15.0594 6.96354 15.3875 6.0375 15.3875 4.9875C15.3875 3.9375 15.0594 3.01146 14.4031 2.20938C13.7469 1.40729 12.9084 0.904167 11.8875 0.7V0.0875C13.0834 0.291667 14.0677 0.856771 14.8407 1.78281C15.6136 2.70885 16 3.77708 16 4.9875C16 6.19792 15.6136 7.26615 14.8407 8.19219C14.0677 9.11823 13.0834 9.68333 11.8875 9.8875Z" fill="#F5F5F5"/>
</svg>
