<svg width="1438" height="121" viewBox="0 0 1438 121" fill="none" xmlns="http://www.w3.org/2000/svg">
<g clip-path="url(#clip0_7610_5)">
<g clip-path="url(#clip1_7610_5)">
<path d="M-2.31071 121.837L45.3139 104.646C92.9386 87.4542 188.188 53.0709 283.8 34.7834C379.412 16.496 475.388 14.3044 571.726 28.2086C668.064 42.1129 764.766 72.113 860.741 69.9214C956.716 67.7298 1051.97 33.3465 1148.06 36.4866C1244.17 40.0292 1341.09 80.0892 1389.57 100.823L1438.04 121.155L1439.5 185.539L1391.51 186.634C1343.52 187.73 1247.55 189.922 1151.57 192.113C1055.6 194.305 959.62 196.497 863.645 198.688C767.67 200.88 671.694 203.071 575.719 205.263C479.744 207.455 383.768 209.646 287.793 211.838C191.818 214.029 95.8426 216.221 47.8549 217.317L-0.13273 218.413L-2.31071 121.837Z" fill="#FADC62"/>
</g>
</g>
<defs>
<clipPath id="clip0_7610_5">
<rect width="1438" height="121" fill="white"/>
</clipPath>
<clipPath id="clip1_7610_5">
<rect width="1440" height="322" fill="white" transform="translate(-2.4502 -120)"/>
</clipPath>
</defs>
</svg>
